<svg xmlns="http://www.w3.org/2000/svg" role="img" aria-label="KMS Textiles logo" width="3903" height="1516" viewBox="0 0 3903 1516" version="1.1">
	<path class="kms-logo-vector-mark" d="M 1909.500 49.490 C 1875.757 55.468, 1843.213 72.929, 1808.975 103.427 C 1775.351 133.377, 1737.620 184.643, 1719.351 225.198 C 1686.501 298.122, 1656.670 402.361, 1630.119 537 C 1624.711 564.421, 1614.383 621.826, 1612.306 636 L 1611.500 641.500 1596.313 649.106 C 1530.594 682.019, 1414.006 712.255, 1250 738.918 C 1223.262 743.265, 1153.385 753.770, 1113 759.514 C 1032.258 770.998, 927.526 795.733, 845.500 822.691 C 788.779 841.333, 743.941 859.253, 667 894.032 C 566.934 939.265, 481.296 989.687, 395.500 1053.886 C 335.912 1098.474, 284.918 1143.037, 230.980 1197.657 C 186.934 1242.259, 177.735 1252.997, 136.877 1307.500 C 98.120 1359.200, 61.744 1413.868, 49.994 1438.073 L 47.774 1442.645 50.462 1448.328 C 58.925 1466.218, 71.473 1472.172, 85.590 1464.996 C 95.454 1459.982, 97.152 1457.885, 104.745 1441.343 C 124.702 1397.867, 157.122 1348.123, 194.802 1303.165 C 221.471 1271.345, 262.778 1228.551, 294 1200.397 C 381.360 1121.620, 485.223 1047.486, 602.500 980.199 C 634.984 961.561, 655.169 951.019, 680.500 939.459 C 790.196 889.402, 912.161 850.403, 1049.044 821.615 C 1097.116 811.505, 1141.733 803.508, 1217 791.511 C 1330.549 773.413, 1364.465 766.821, 1436 748.948 C 1475.235 739.145, 1510.092 729.402, 1561.349 713.909 C 1583.266 707.285, 1601.405 702.072, 1601.658 702.325 C 1602.185 702.852, 1593.607 741.046, 1584.920 776.849 C 1572.931 826.261, 1561.657 866.238, 1556.395 878 C 1553.989 883.378, 1553.685 883.632, 1542.717 889.436 C 1455.107 935.797, 1385.655 986.296, 1350.771 1029 C 1335.232 1048.022, 1317.706 1079.646, 1308.651 1105 C 1303.514 1119.383, 1297.716 1142.002, 1295.449 1156.500 C 1294.589 1162, 1293.630 1174.825, 1293.318 1185 C 1292.437 1213.725, 1296.071 1233.441, 1305.942 1253.500 C 1316.253 1274.451, 1333.167 1289.194, 1355.500 1296.699 C 1362.678 1299.111, 1364.938 1299.386, 1377.500 1299.375 C 1389.894 1299.365, 1392.532 1299.049, 1400.500 1296.618 C 1411.304 1293.323, 1427.258 1285.177, 1437.802 1277.571 C 1457.333 1263.484, 1481.178 1238.465, 1495.985 1216.522 C 1521.126 1179.265, 1555.590 1090.815, 1586.947 983.074 C 1589.737 973.489, 1592.191 965.476, 1592.401 965.265 C 1592.612 965.055, 1596.770 968.205, 1601.642 972.265 C 1631.145 996.851, 1663.485 1031.163, 1698.942 1075.500 C 1722.396 1104.828, 1765.357 1148.864, 1791.088 1169.952 C 1829.932 1201.788, 1865.464 1218.800, 1902 1223.055 C 1915.120 1224.583, 1936.014 1223.709, 1949.135 1221.083 C 1964.028 1218.103, 1983.114 1211.326, 1998.500 1203.554 C 2014.749 1195.347, 2025.419 1188.574, 2043.500 1174.988 C 2120.346 1117.244, 2207.114 1018.854, 2299.232 885 C 2315.120 861.914, 2352.267 818.806, 2377.827 793.793 C 2408.442 763.833, 2431.794 747.693, 2456.500 739.416 C 2465.726 736.325, 2469.291 735.651, 2478.603 735.233 C 2492.732 734.598, 2501.816 736.508, 2514.228 742.721 C 2526.066 748.648, 2530.717 753.373, 2536.320 765.167 C 2545.401 784.285, 2550.358 805.344, 2552.992 836 C 2553.582 842.875, 2554.051 868.109, 2554.034 892.075 C 2553.993 948.351, 2555.622 973.382, 2561.123 1001 C 2567.683 1033.936, 2580.739 1056.823, 2597.739 1065.192 C 2603.228 1067.894, 2605.657 1068.463, 2613.259 1068.827 C 2624.579 1069.368, 2630.998 1067.987, 2642.710 1062.488 C 2654.249 1057.071, 2666.738 1048.545, 2679 1037.712 C 2688.415 1029.395, 2695.598 1021.446, 2749.684 959.500 C 2818.436 880.756, 2867.319 830.810, 2902 803.872 C 2928.296 783.447, 2943 776.954, 2963 776.937 C 2977.535 776.925, 2987.563 780.562, 2998.814 789.925 C 3010.689 799.807, 3023.090 819.657, 3031.034 841.500 C 3042.510 873.053, 3058.071 906.296, 3070.700 926.238 C 3094.210 963.363, 3118.878 987.076, 3151 1003.430 C 3180.328 1018.361, 3210.827 1025.109, 3250.157 1025.370 L 3269.815 1025.500 3275.815 1035.500 C 3288.795 1057.132, 3305.794 1078.802, 3322.124 1094.531 C 3342.840 1114.486, 3366.919 1129.759, 3402.437 1145.476 C 3448.363 1165.797, 3484.128 1174.127, 3525.525 1174.143 C 3547.701 1174.152, 3564.371 1172.135, 3584.573 1166.999 C 3627.794 1156.011, 3667.942 1132.559, 3686.925 1107.211 C 3693.122 1098.935, 3699.222 1086.711, 3702.004 1076.988 C 3704.787 1067.262, 3705.741 1046.928, 3704.047 1033.465 C 3702.537 1021.471, 3698.141 1003.185, 3694.118 992.160 C 3689.641 979.894, 3678.848 959.829, 3665.522 939 C 3659.012 928.825, 3649.889 914.200, 3645.248 906.500 C 3640.607 898.800, 3634.339 889.201, 3631.320 885.168 C 3628.300 881.136, 3625.981 877.701, 3626.165 877.536 C 3626.349 877.370, 3629.875 875.546, 3634 873.483 C 3638.125 871.420, 3649.150 865.441, 3658.500 860.196 C 3751.055 808.277, 3812.173 754.576, 3838.446 702.086 C 3845.172 688.650, 3848.116 680.424, 3851.553 665.460 C 3855.222 649.486, 3856.098 627.065, 3853.510 615.335 C 3847.402 587.645, 3829.227 568.248, 3800.158 558.396 C 3787.676 554.165, 3778.571 552.372, 3762.322 550.945 C 3738.813 548.881, 3717.475 552.295, 3689.502 562.597 C 3675.072 567.911, 3651.205 579.486, 3640 586.603 C 3607.897 606.996, 3577.776 637.395, 3559.225 668.123 C 3550.168 683.125, 3540.204 704.734, 3537.611 715 C 3532.525 735.130, 3531.529 743.328, 3531.535 765 C 3531.540 782.386, 3531.890 787.240, 3533.840 796.956 C 3537.206 813.726, 3543.918 833.057, 3552.642 851.101 C 3556.870 859.848, 3560.143 867.180, 3559.915 867.395 C 3558.654 868.583, 3533.233 883.504, 3518.072 891.955 C 3437.476 936.881, 3363.553 964.715, 3306.911 971.464 L 3294.500 972.942 3292.352 970.332 C 3284.186 960.412, 3278.677 945.874, 3277.041 929.931 C 3275.422 914.160, 3273.020 907.192, 3267.342 901.803 C 3256.131 891.163, 3238.247 895.529, 3230.904 910.698 C 3227.328 918.085, 3227.714 925.876, 3232.379 940.500 C 3235.535 950.393, 3241.099 965.883, 3244.502 974.250 C 3245.146 975.834, 3244.421 976, 3236.857 975.997 C 3212.023 975.989, 3183.512 968.463, 3162.500 956.371 C 3137.893 942.210, 3116.014 919.453, 3101.093 892.500 C 3098.353 887.550, 3092.001 872.769, 3086.977 859.654 C 3075.197 828.904, 3069.453 815.537, 3061.083 799.397 C 3043.478 765.452, 3026.279 746.614, 3002.691 735.439 C 2989.563 729.219, 2981.627 727.659, 2963 727.639 C 2939.742 727.613, 2932.322 729.422, 2914.554 739.451 C 2877.288 760.487, 2853.402 779.351, 2813.962 818.897 C 2781.595 851.351, 2753.584 883.419, 2723.802 922.115 C 2688.755 967.652, 2657.408 1001.196, 2637.403 1014.568 C 2628.376 1020.603, 2622.577 1023, 2617.009 1023 C 2612.075 1023, 2608.802 1020.291, 2606.074 1013.951 C 2601.275 1002.794, 2600.970 997.851, 2601.651 942.209 C 2602.324 887.239, 2601.586 866.367, 2597.922 836.676 C 2588.453 759.957, 2564.621 712.338, 2526.004 692.980 C 2510.314 685.114, 2500.398 683.316, 2481.286 684.872 C 2453.850 687.106, 2437.618 691.157, 2418.949 700.430 C 2396.487 711.587, 2374.869 728.321, 2344.639 757.953 C 2326.395 775.836, 2320.192 783.405, 2267.973 851.500 C 2178.842 967.729, 2132.725 1024.504, 2086.430 1075 C 2069.780 1093.161, 2061.024 1101.705, 2048 1112.497 C 2012.136 1142.216, 1982.730 1159.004, 1952.500 1167.020 C 1926.343 1173.956, 1901.582 1173.424, 1877 1165.399 C 1865.874 1161.767, 1844.718 1150.895, 1834.638 1143.630 C 1815.997 1130.195, 1812.243 1126.242, 1774.695 1080.500 C 1744.464 1043.674, 1724.849 1020.974, 1710 1005.632 C 1703.125 998.529, 1698.400 992.988, 1699.500 993.319 C 1703.422 994.498, 1731.736 997.981, 1745.500 998.978 C 1808.723 1003.556, 1867.240 992.317, 1913.500 966.711 C 1956.502 942.909, 1989.767 905.852, 2002.560 867.500 C 2004.716 861.037, 2005.326 856.994, 2005.738 846.454 C 2007.041 813.082, 1999.979 785.412, 1985.182 765.916 C 1970.540 746.625, 1946.454 733.653, 1915.530 728.405 C 1910.563 727.562, 1898.625 726.619, 1889 726.311 C 1873.449 725.812, 1870.280 725.998, 1860.544 727.980 C 1820.242 736.180, 1769.584 757.378, 1713.414 789.546 C 1683.522 806.665, 1649.538 828.278, 1622.679 847.253 C 1617.277 851.069, 1612.710 854.036, 1612.530 853.846 C 1612.350 853.655, 1615.990 837.525, 1620.618 818 C 1628.701 783.904, 1648.647 695.011, 1651.034 682.444 L 1652.184 676.388 1667.342 668.520 C 1758.500 621.206, 1821.684 580.301, 1897.206 519.705 C 1928.969 494.220, 1943.258 480.251, 1963.906 454.500 C 2014.480 391.426, 2060.767 295.457, 2067.141 240.460 C 2068.987 224.526, 2068.708 184.206, 2066.657 170.629 C 2060.355 128.911, 2045.154 100.834, 2016.568 78.118 C 2000.379 65.254, 1983.981 57.183, 1963.048 51.779 C 1952.932 49.168, 1949.393 48.753, 1934.500 48.435 C 1922.772 48.185, 1915.019 48.512, 1909.500 49.490 M 1911.909 98.491 C 1870.576 106.316, 1830.344 140.864, 1787.292 205.500 C 1764.695 239.426, 1760.724 246.645, 1750.721 272 C 1732.033 319.364, 1712.016 393.065, 1690.020 495.500 C 1678.615 548.609, 1665.414 616.747, 1666.348 617.681 C 1667.012 618.345, 1705.083 599.763, 1722.500 590.273 C 1824.605 534.644, 1907.690 459.981, 1966.509 371 C 1986.629 340.563, 2000.465 314.626, 2007.317 294.500 C 2023.758 246.213, 2028.403 209.419, 2022.015 178.074 C 2017.350 155.183, 2007.153 137.045, 1988.635 118.697 C 1982.157 112.279, 1978.810 109.846, 1972.206 106.750 C 1959.514 100.801, 1946.842 97.862, 1932 97.423 C 1923.824 97.182, 1916.874 97.551, 1911.909 98.491 M 3741 598.082 C 3710.987 601.908, 3678.473 616.597, 3646.733 640.672 C 3632.906 651.159, 3602.849 681.270, 3596.236 691.259 C 3590.256 700.293, 3584.495 716.688, 3580.868 735 C 3577.879 750.084, 3577.619 776.805, 3580.328 790.339 C 3583.636 806.864, 3588.883 820.415, 3597.321 834.225 L 3601.429 840.950 3612.791 834.931 C 3626.617 827.606, 3646.701 815.375, 3661.500 805.268 C 3714.511 769.061, 3778.051 711.642, 3794.035 685.500 C 3809.378 660.406, 3813.452 637.693, 3805.444 621.890 C 3800.251 611.642, 3786.918 602.170, 3772.540 598.515 C 3766.130 596.886, 3751.917 596.691, 3741 598.082 M 1872.500 776.588 C 1859.627 778.582, 1843.923 782.659, 1833.500 786.714 C 1814.983 793.918, 1775.398 813.991, 1748.500 829.816 C 1708.550 853.321, 1659.519 885.330, 1620.658 913.278 L 1612.816 918.918 1616.158 921.003 C 1623.116 925.345, 1638.324 932.096, 1649.697 935.893 C 1696.103 951.381, 1762.980 953.733, 1837.500 942.496 C 1855.777 939.740, 1867.412 936.620, 1881 930.833 C 1918.986 914.654, 1944.672 887.318, 1955.639 851.400 C 1958.092 843.368, 1958.364 840.940, 1958.428 826.500 C 1958.499 810.682, 1958.466 810.432, 1955.515 804.500 C 1951.381 796.188, 1941.307 786.311, 1932.696 782.128 C 1922.793 777.316, 1910.236 775.009, 1894.500 775.110 C 1887.350 775.156, 1877.450 775.821, 1872.500 776.588 M 3563.648 918.589 C 3526.457 940.462, 3483.687 962.693, 3458.251 973.372 C 3432.693 984.103, 3348.850 1011.174, 3329.206 1015.039 C 3325.793 1015.711, 3323 1016.476, 3323 1016.740 C 3323 1017.005, 3325.325 1020.433, 3328.168 1024.360 C 3369.418 1081.352, 3420.549 1112.504, 3489.500 1122.654 C 3506.698 1125.185, 3547.955 1125.181, 3564 1122.645 C 3615.797 1114.461, 3648.377 1095.183, 3658.045 1067 C 3662.692 1053.451, 3661.531 1032.364, 3655.322 1017.552 C 3649.462 1003.576, 3634.512 980.042, 3607.007 941.500 C 3598.372 929.400, 3589.599 916.913, 3587.512 913.750 C 3585.425 910.587, 3583.218 908.020, 3582.608 908.045 C 3581.999 908.070, 3573.467 912.815, 3563.648 918.589 M 1525 953.886 C 1470.996 976.274, 1421.792 1016.117, 1383.631 1068.358 C 1374.408 1080.984, 1371.069 1087.369, 1360.550 1112.500 C 1345.685 1148.015, 1337.997 1178.389, 1338.023 1201.500 C 1338.050 1225.154, 1345.308 1240.064, 1361.379 1249.482 C 1365.539 1251.920, 1367.245 1252.313, 1373.365 1252.244 C 1388.814 1252.071, 1405.606 1244.058, 1424.717 1227.741 C 1456.253 1200.816, 1485.489 1150.667, 1505.307 1089.500 C 1517.500 1051.871, 1528.270 1008.496, 1535.477 968 C 1536.896 960.025, 1538.278 952.487, 1538.548 951.250 C 1538.858 949.826, 1538.572 949.022, 1537.769 949.059 C 1537.071 949.092, 1531.325 951.264, 1525 953.886 M 3817.007 1278.593 C 3809.424 1281.881, 3804.987 1288.774, 3805.022 1297.210 C 3805.062 1306.950, 3807.862 1310.619, 3827.902 1327.202 C 3831.423 1330.116, 3835.637 1334.154, 3837.267 1336.175 C 3845.243 1346.072, 3838.652 1358.986, 3825.618 1358.996 C 3819.383 1359.001, 3815.260 1356.491, 3810.868 1350.017 C 3809.016 1347.286, 3807.188 1345.040, 3806.807 1345.026 C 3806.426 1345.012, 3804.511 1345.946, 3802.551 1347.103 L 3798.987 1349.205 3801.170 1353.089 C 3807.260 1363.924, 3815.094 1369, 3825.728 1369 C 3836.300 1369, 3844.238 1364.412, 3848.618 1355.768 C 3850.815 1351.432, 3851.149 1349.645, 3850.828 1343.954 C 3850.503 1338.213, 3849.908 1336.435, 3846.689 1331.586 C 3844.258 1327.926, 3839.847 1323.549, 3834.214 1319.211 C 3829.421 1315.520, 3823.137 1310.206, 3820.250 1307.402 C 3815.375 1302.669, 3815 1301.966, 3815 1297.575 C 3815 1293.682, 3815.516 1292.330, 3817.923 1289.923 C 3820.477 1287.369, 3821.573 1287, 3826.607 1287 C 3832.211 1287, 3832.499 1287.136, 3837.187 1292 C 3839.838 1294.750, 3842.342 1296.988, 3842.753 1296.973 C 3843.164 1296.958, 3845.002 1295.700, 3846.837 1294.178 L 3850.174 1291.410 3845.358 1286.054 C 3842.710 1283.108, 3838.733 1279.875, 3836.521 1278.871 C 3831.572 1276.622, 3821.869 1276.484, 3817.007 1278.593 M 3150 1283.500 L 3150 1288 3160 1288 L 3170 1288 3170 1327.500 L 3170 1367 3175 1367 L 3180 1367 3180 1327.500 L 3180 1288 3190 1288 L 3200 1288 3200 1283.500 L 3200 1279 3175 1279 L 3150 1279 3150 1283.500 M 3248 1323 L 3248 1367 3273.500 1367 L 3299 1367 3299 1362.500 L 3299 1358 3278.500 1358 L 3258 1358 3258 1341 L 3258 1324 3278.500 1324 L 3299 1324 3299 1319.500 L 3299 1315 3278.500 1315 L 3258 1315 3258 1301.500 L 3258 1288 3278.500 1288 L 3299 1288 3299 1283.500 L 3299 1279 3273.500 1279 L 3248 1279 3248 1323 M 3346 1279.437 C 3346 1279.677, 3351.671 1289.133, 3358.602 1300.450 C 3366.356 1313.112, 3370.975 1321.622, 3370.610 1322.573 C 3370.284 1323.423, 3364.163 1333.577, 3357.009 1345.138 C 3349.854 1356.698, 3344 1366.369, 3344 1366.628 C 3344 1366.888, 3346.518 1366.965, 3349.596 1366.800 L 3355.193 1366.500 3365.676 1349.500 C 3371.442 1340.150, 3376.461 1332.187, 3376.830 1331.803 C 3377.198 1331.420, 3382.429 1339.183, 3388.453 1349.053 L 3399.406 1367 3404.810 1367 C 3408.993 1367, 3410.094 1366.688, 3409.685 1365.620 C 3409.393 1364.861, 3403.250 1354.655, 3396.032 1342.939 L 3382.910 1321.637 3389.662 1310.568 C 3393.376 1304.481, 3399.216 1295, 3402.640 1289.500 L 3408.865 1279.500 3404.310 1279.190 C 3401.804 1279.020, 3399.194 1279.095, 3398.509 1279.358 C 3397.825 1279.621, 3392.817 1287.072, 3387.382 1295.915 C 3378.600 1310.206, 3377.355 1311.800, 3376.194 1310.247 C 3375.476 1309.286, 3370.825 1301.862, 3365.859 1293.750 L 3356.829 1279 3351.415 1279 C 3348.437 1279, 3346 1279.197, 3346 1279.437 M 3452 1283.500 L 3452 1288 3462 1288 L 3472 1288 3472 1327.500 L 3472 1367 3477 1367 L 3482 1367 3482 1327.500 L 3482 1288 3492 1288 L 3502 1288 3502 1283.500 L 3502 1279 3477 1279 L 3452 1279 3452 1283.500 M 3548 1323 L 3548 1367 3553 1367 L 3558 1367 3558 1323 L 3558 1279 3553 1279 L 3548 1279 3548 1323 M 3613 1323 L 3613 1367 3635 1367 L 3657 1367 3657 1362.500 L 3657 1358 3640 1358 L 3623 1358 3623 1318.500 L 3623 1279 3618 1279 L 3613 1279 3613 1323 M 3706 1323 L 3706 1367 3731.500 1367 L 3757 1367 3757 1362.500 L 3757 1358 3736.500 1358 L 3716 1358 3716 1341 L 3716 1324 3736.500 1324 L 3757 1324 3757 1319.500 L 3757 1315 3736.500 1315 L 3716 1315 3716 1301.500 L 3716 1288 3736.500 1288 L 3757 1288 3757 1283.500 L 3757 1279 3731.500 1279 L 3706 1279 3706 1323" stroke="none" fill="#5a6557" fill-rule="evenodd"/>
</svg>