<svg role="img" aria-label="KMS Khalid Mehmood Shaikh Textiles logo" xmlns="http://www.w3.org/2000/svg" width="1870" height="841" viewBox="0 0 1870 841" version="1.1">
	<path d="M 926 74.121 C 891.813 78.393, 857.599 112.619, 831.798 168.357 C 817.172 199.955, 798.698 253.611, 778.923 321.932 C 776.785 329.320, 774.690 335.703, 774.268 336.117 C 772.985 337.373, 747.593 344.778, 728.500 349.464 C 696.710 357.265, 670.080 362.014, 610.500 370.503 C 517.914 383.696, 472.709 393.771, 413.827 414.339 C 368.328 430.231, 316.207 456.103, 277.500 482.008 C 209.526 527.501, 151.460 586.870, 118.139 644.943 C 110.299 658.608, 109.317 662.817, 113.039 666.811 C 115.967 669.955, 122.270 669.820, 125.545 666.545 C 126.895 665.195, 128 663.658, 128 663.129 C 128 661.336, 138.805 643.077, 146.562 631.760 C 175.279 589.870, 216.976 548.538, 267.500 511.882 C 339.878 459.372, 428.371 422.454, 530.500 402.164 C 546.950 398.896, 590.267 391.684, 618.500 387.514 C 663.044 380.934, 702.623 373.843, 722.162 368.941 C 731.495 366.599, 759.109 358.926, 767.132 356.445 C 768.438 356.041, 767.671 359.585, 763.281 374.220 C 760.266 384.274, 755.212 401.275, 752.051 412 L 746.304 431.500 732.902 438.522 C 699.189 456.185, 671.199 478.911, 654.720 502 C 629.601 537.194, 624.889 575.738, 643.596 592.982 C 650.637 599.472, 655.931 601.480, 666 601.481 C 676.398 601.481, 682.294 599.599, 692.240 593.106 C 704.002 585.428, 716.373 570.124, 725.553 551.894 C 729.877 543.308, 738.419 521.568, 742.799 508 C 746.021 498.019, 754.452 469.458, 755.569 464.741 C 756.484 460.873, 757.541 460.553, 761.443 462.965 C 766.246 465.933, 773.939 474.501, 788.173 492.734 C 801.829 510.227, 817.903 527.012, 828.362 534.700 C 836.688 540.820, 848.580 546.793, 860 550.591 C 867.989 553.248, 869.521 553.418, 885.500 553.423 C 904.764 553.430, 909.671 552.534, 926.579 545.923 C 946.950 537.958, 968.618 522.718, 993.310 498.988 C 1008.285 484.597, 1022.510 468.968, 1052.003 434.500 C 1074.498 408.210, 1096.093 385.440, 1107 376.509 C 1121.884 364.322, 1136.217 357.656, 1147.579 357.636 C 1160.878 357.612, 1165.468 364.802, 1166.644 387.500 C 1167.084 395.989, 1166.481 405.576, 1164.002 429.500 C 1159.691 471.117, 1160.286 482.039, 1167.331 490.586 C 1175.003 499.893, 1188.632 498.984, 1203.245 488.188 C 1213.048 480.946, 1221.198 472.670, 1244.137 446.660 C 1306.569 375.871, 1338.756 353.705, 1354.235 370.838 C 1359.213 376.349, 1362.282 383.353, 1367.889 402 C 1379.615 441, 1389.896 458.215, 1408.738 470.397 C 1432.491 485.754, 1461.741 488.673, 1505 480.003 C 1527.400 475.514, 1561.133 465.299, 1588.500 454.719 C 1602.177 449.431, 1633.131 435.948, 1644.244 430.437 C 1647.855 428.647, 1650.327 427.944, 1650.900 428.544 C 1652.932 430.675, 1668.137 459.958, 1670.101 465.523 C 1673.109 474.048, 1672.486 485.788, 1668.682 492.280 C 1665.298 498.055, 1659.232 503.064, 1650.943 506.928 C 1639.048 512.474, 1633.282 513.500, 1614 513.500 C 1597.913 513.499, 1595.695 513.275, 1586.536 510.716 C 1573.746 507.144, 1564.037 502.418, 1556.500 496.095 C 1553.200 493.327, 1549.214 490.337, 1547.642 489.450 C 1540.137 485.215, 1532.736 494.088, 1537.592 501.499 C 1539.698 504.715, 1551.869 513.849, 1560 518.318 C 1585.990 532.601, 1624.966 536.068, 1652.810 526.572 C 1669.164 520.994, 1681.315 510.861, 1687.653 497.515 C 1690.796 490.898, 1691.348 488.627, 1691.751 480.683 C 1692.483 466.233, 1689.900 459, 1673.075 428.388 L 1668.068 419.277 1680.784 412.453 C 1731.578 385.195, 1763.593 359.657, 1774.745 337.500 C 1784.250 318.613, 1779.869 302.488, 1763.103 294.651 C 1759.053 292.759, 1756.818 292.508, 1744.500 292.564 C 1731.449 292.624, 1729.822 292.852, 1720.500 295.923 C 1679.994 309.265, 1647.764 340.314, 1639.934 373.537 C 1637.886 382.228, 1638.503 395.473, 1641.375 404.457 C 1642.774 408.834, 1643.803 412.530, 1643.661 412.672 C 1643.148 413.185, 1627.173 420.375, 1612.500 426.696 C 1571.223 444.479, 1527.528 458.308, 1496 463.567 C 1480.421 466.166, 1456.375 465.984, 1444.097 463.174 C 1430.646 460.096, 1421.184 455.109, 1412.538 446.544 C 1401.440 435.548, 1395.742 423.236, 1386.396 390.057 C 1379.880 366.923, 1371.921 354.060, 1360.520 348.236 C 1354.423 345.122, 1342.677 344.104, 1334.141 345.950 C 1325.892 347.734, 1313.756 353.954, 1303.500 361.653 C 1291.184 370.898, 1269.723 392.113, 1252.146 412.418 C 1244.091 421.723, 1233.955 433.423, 1229.622 438.418 C 1203.458 468.579, 1187.584 481.013, 1182.163 475.591 C 1179.834 473.261, 1180.216 461.777, 1183.497 435.500 C 1189.867 384.495, 1187.413 360.908, 1174.276 346.864 C 1167.713 339.847, 1161.737 337.617, 1149.500 337.616 C 1140.993 337.615, 1138.380 338.034, 1132 340.419 C 1109.051 348.998, 1085.721 369.521, 1046.083 416 C 993.090 478.138, 974.297 497.042, 948.329 514.330 C 927.741 528.036, 910.117 534, 890.204 534 C 876.579 534, 868.942 532.375, 857.381 527.016 C 845.732 521.616, 837.758 515.866, 827.500 505.470 C 820.201 498.073, 801 473.662, 801 471.780 C 801 471.517, 803.587 471.769, 806.750 472.339 C 809.913 472.908, 821.500 473.383, 832.500 473.394 C 850.646 473.411, 853.519 473.170, 863.500 470.794 C 883.322 466.076, 897.188 459.586, 910.749 448.679 C 937.573 427.103, 945.839 394.115, 929.029 375.722 C 920.944 366.876, 910.236 362.988, 894.040 363.017 C 867.258 363.066, 833.667 377.374, 783.968 409.900 C 777.186 414.339, 771.486 417.820, 771.303 417.636 C 771.119 417.452, 772.996 410.371, 775.475 401.901 C 777.953 393.430, 782.547 377.644, 785.683 366.819 L 791.385 347.138 802.442 342.479 C 828.733 331.401, 855.762 315.677, 880 297.360 C 929.420 260.012, 967.269 205.929, 980.269 154.084 C 981.970 147.301, 982.426 142.458, 982.445 131 C 982.471 115.158, 981.338 109.535, 976.005 99.052 C 966.708 80.778, 947.874 71.388, 926 74.121 M 922.760 94.558 C 891.202 102.207, 860.798 143.396, 834.394 214.269 C 823.147 244.459, 797.374 324.707, 798.548 325.882 C 799.378 326.711, 828.447 311.755, 839.529 304.796 C 865.214 288.668, 879.870 277.042, 898.057 258.367 C 929.891 225.681, 951.928 188.360, 960.571 152.500 C 962.879 142.926, 963.170 139.931, 962.821 129.397 C 962.449 118.211, 962.176 116.799, 959.210 110.774 C 951.895 95.915, 939.645 90.465, 922.760 94.558 M 1729.445 311.960 C 1701.608 319.261, 1673.257 340.906, 1663.437 362.356 C 1659.553 370.840, 1658.025 377.518, 1658.012 386.068 C 1657.999 394.239, 1660.329 404.004, 1662.289 403.993 C 1664.092 403.983, 1683.726 392.886, 1698.319 383.631 C 1727.453 365.152, 1750.578 344.786, 1756.839 332.090 C 1760.128 325.422, 1760.884 319.520, 1758.919 315.849 C 1755.922 310.249, 1742.648 308.498, 1729.445 311.960 M 885.313 383.010 C 870.089 385.114, 842.936 396.526, 818.217 411.208 C 800.135 421.949, 769.866 442.270, 770.728 443.090 C 771.920 444.224, 788.317 449.007, 798.425 451.169 C 811.591 453.986, 839.335 454.725, 852.237 452.603 C 874.969 448.863, 892.227 440.718, 904.389 427.988 C 916.530 415.281, 920.793 402.402, 916.082 392.669 C 914.883 390.192, 912.911 387.528, 911.701 386.748 C 905.970 383.058, 895.596 381.588, 885.313 383.010 M 724.379 465.576 C 710.432 474.007, 700.903 481.286, 689.240 492.418 C 677.092 504.012, 669.196 514.614, 662.464 528.371 C 655.541 542.518, 652.675 553.502, 653.154 564.049 C 653.546 572.694, 655.051 575.708, 660.990 579.750 C 667.909 584.459, 677.394 581.286, 687.948 570.732 C 698.318 560.362, 705.959 547.329, 716.023 522.847 C 724.035 503.356, 737.954 459, 736.059 459 C 735.618 459, 730.362 461.959, 724.379 465.576 M 1646.313 576.127 C 1639.791 577.964, 1636.469 585.971, 1639.542 592.447 C 1642.841 599.399, 1652.356 601.334, 1658.083 596.218 C 1661.987 592.729, 1663.229 585.524, 1660.614 581.534 C 1657.449 576.704, 1651.822 574.576, 1646.313 576.127 M 1294 587.570 C 1294 598.996, 1294.028 599.135, 1296.250 598.820 C 1298.180 598.545, 1298.500 597.896, 1298.500 594.249 C 1298.500 591.910, 1298.791 589.998, 1299.146 589.999 C 1299.501 589.999, 1301.539 592.069, 1303.674 594.599 C 1306.624 598.095, 1308.121 599.114, 1309.914 598.849 C 1312.171 598.515, 1312.073 598.277, 1307.637 593.353 C 1305.087 590.522, 1303 587.815, 1303 587.336 C 1303 586.857, 1305.060 584.111, 1307.578 581.233 C 1311.969 576.213, 1312.054 576, 1309.663 576 C 1307.962 576, 1305.912 577.430, 1303.209 580.500 C 1299.041 585.235, 1298.193 585.793, 1298.269 583.750 C 1298.484 577.964, 1297.909 576, 1296 576 C 1294.115 576, 1294 576.667, 1294 587.570 M 1327 587.500 C 1327 598.333, 1327.116 599, 1329 599 C 1330.736 599, 1331 598.333, 1331 593.948 L 1331 588.895 1336.178 589.198 L 1341.356 589.500 1341.428 594 C 1341.490 597.879, 1341.810 598.544, 1343.750 598.820 C 1345.972 599.135, 1346 598.996, 1346 587.570 C 1346 576.667, 1345.885 576, 1344 576 C 1342.296 576, 1342 576.667, 1342 580.500 L 1342 585 1336.500 585 L 1331 585 1331 580.500 C 1331 576.667, 1330.704 576, 1329 576 C 1327.116 576, 1327 576.667, 1327 587.500 M 1364.792 585.704 C 1362.792 591.092, 1360.848 596.288, 1360.471 597.250 C 1359.949 598.584, 1360.293 599, 1361.918 599 C 1363.271 599, 1364.396 598.088, 1365 596.500 C 1365.836 594.301, 1366.543 594, 1370.867 594 C 1375.277 594, 1375.848 594.257, 1376.411 596.500 C 1376.816 598.114, 1377.740 599, 1379.019 599 C 1381.602 599, 1381.500 598.321, 1377.150 586.500 C 1373.921 577.725, 1373.161 576.464, 1370.949 576.204 C 1368.608 575.930, 1368.167 576.610, 1364.792 585.704 M 1396 587.500 L 1396 599 1402 599 C 1406.667 599, 1408 598.667, 1408 597.500 C 1408 596.417, 1406.889 596, 1404 596 L 1400 596 1400 586 C 1400 576.667, 1399.867 576, 1398 576 C 1396.116 576, 1396 576.667, 1396 587.500 M 1422 587.500 C 1422 598.333, 1422.116 599, 1424 599 C 1425.884 599, 1426 598.333, 1426 587.500 C 1426 576.667, 1425.884 576, 1424 576 C 1422.116 576, 1422 576.667, 1422 587.500 M 1442 587.500 L 1442 599 1448.600 599 C 1454.773 599, 1455.420 598.780, 1458.600 595.600 C 1461.348 592.852, 1462 591.423, 1462 588.147 C 1462 579.460, 1458.026 576, 1448.050 576 L 1442 576 1442 587.500 M 1496 587.430 C 1496 598.333, 1496.115 599, 1498 599 C 1499.813 599, 1500.003 598.323, 1500.032 591.750 L 1500.064 584.500 1503.128 591.750 C 1507.200 601.385, 1508.650 601.308, 1512.519 591.250 L 1515.500 583.500 1515.792 591.250 C 1516.053 598.178, 1516.292 599, 1518.042 599 C 1519.872 599, 1520 598.251, 1520 587.500 C 1520 576.044, 1519.991 576, 1517.612 576 C 1515.563 576, 1514.767 577.135, 1511.994 584.014 C 1510.218 588.422, 1508.458 592.217, 1508.083 592.449 C 1507.709 592.680, 1505.849 589.186, 1503.951 584.685 C 1501.237 578.249, 1500.019 576.432, 1498.250 576.180 C 1496.028 575.865, 1496 576.004, 1496 587.430 M 1536 587.500 L 1536 599 1543 599 C 1548.556 599, 1550 598.690, 1550 597.500 C 1550 596.367, 1548.778 596, 1545 596 L 1540 596 1540 592.557 C 1540 589.233, 1540.143 589.104, 1544.172 588.807 C 1549.899 588.385, 1550.364 586.210, 1544.813 585.811 C 1540.753 585.518, 1540.482 585.309, 1540.187 582.250 C 1539.874 579.012, 1539.891 579, 1544.437 579 C 1547.826 579, 1549 578.614, 1549 577.500 C 1549 576.321, 1547.611 576, 1542.500 576 L 1536 576 1536 587.500 M 1565 587.500 C 1565 598.333, 1565.116 599, 1567 599 C 1568.736 599, 1569 598.333, 1569 593.948 L 1569 588.895 1574.156 589.198 L 1579.312 589.500 1579.406 594 C 1579.485 597.802, 1579.810 598.500, 1581.500 598.500 C 1583.364 598.500, 1583.513 597.768, 1583.697 587.698 C 1583.856 578.925, 1583.614 576.789, 1582.404 576.325 C 1580.248 575.497, 1579.601 576.564, 1579.547 581.033 L 1579.500 584.994 1574.250 584.997 L 1569 585 1569 580.500 C 1569 576.667, 1568.704 576, 1567 576 C 1565.116 576, 1565 576.667, 1565 587.500 M 1599 587.434 C 1599 598.251, 1599.127 599, 1600.958 599 C 1602.708 599, 1602.947 598.178, 1603.208 591.250 L 1603.500 583.500 1606.657 591 C 1610.747 600.718, 1612.327 600.844, 1615.972 591.744 C 1617.461 588.028, 1618.976 584.691, 1619.339 584.327 C 1619.703 583.964, 1620 587.117, 1620 591.333 C 1620 598.333, 1620.174 599, 1622 599 C 1623.884 599, 1624 598.333, 1624 587.500 C 1624 576.100, 1623.980 576, 1621.653 576 C 1619.673 576, 1618.690 577.357, 1615.370 584.671 L 1611.433 593.343 1607.888 584.921 C 1604.815 577.621, 1603.988 576.458, 1601.672 576.184 L 1599 575.867 1599 587.434 M 1679.766 578.918 C 1676.806 581.563, 1676.500 582.367, 1676.500 587.500 C 1676.500 592.633, 1676.806 593.437, 1679.766 596.082 C 1682.368 598.407, 1683.964 599, 1687.616 599 C 1691.496 599, 1692.722 598.478, 1695.600 595.600 C 1698.502 592.698, 1699 591.512, 1699 587.500 C 1699 583.488, 1698.502 582.302, 1695.600 579.400 C 1692.722 576.522, 1691.496 576, 1687.616 576 C 1683.964 576, 1682.368 576.593, 1679.766 578.918 M 1714 587.613 L 1714 599.226 1721.117 598.824 C 1727.641 598.455, 1728.475 598.152, 1731.117 595.195 C 1733.406 592.633, 1734 591.024, 1734 587.384 C 1734 583.504, 1733.478 582.278, 1730.600 579.400 C 1727.420 576.220, 1726.773 576, 1720.600 576 L 1714 576 1714 587.613 M 1446.461 580.240 C 1446.154 581.042, 1446.036 584.804, 1446.201 588.599 L 1446.500 595.500 1450.500 595.211 C 1455.488 594.851, 1458 592.116, 1458 587.044 C 1458 582.571, 1455.963 580.441, 1450.761 579.475 C 1447.935 578.951, 1446.884 579.138, 1446.461 580.240 M 1645.635 581.073 C 1643.523 582.734, 1643 583.993, 1643 587.418 C 1643 592.553, 1645.519 595.333, 1650.171 595.333 C 1653.715 595.333, 1658 591.262, 1658 587.895 C 1658 584.652, 1655.253 580.301, 1652.790 579.641 C 1649.246 578.691, 1648.463 578.848, 1645.635 581.073 M 1684.315 579.985 C 1677.949 582.613, 1679.092 594.677, 1685.750 595.115 C 1691.782 595.512, 1695 592.863, 1695 587.500 C 1695 581.699, 1689.513 577.840, 1684.315 579.985 M 1718.469 580.221 C 1718.157 581.034, 1718.036 584.804, 1718.201 588.599 L 1718.500 595.500 1722.500 595.265 C 1727.326 594.982, 1730 592.213, 1730 587.500 C 1730 585.697, 1729.213 583.258, 1728.250 582.080 C 1726.034 579.368, 1719.288 578.086, 1718.469 580.221 M 1369.160 584.860 C 1367.491 590.431, 1367.661 591, 1371 591 C 1374.405 591, 1374.447 590.870, 1372.670 585.769 C 1370.855 580.558, 1370.478 580.460, 1369.160 584.860 M 1429.223 624.557 C 1427.685 625.634, 1427 627.136, 1427 629.434 C 1427 633.205, 1427.934 634.191, 1433.313 636.097 C 1438.212 637.832, 1439.659 639.501, 1438 641.500 C 1436.362 643.473, 1432.334 643.420, 1431.209 641.410 C 1430.693 640.486, 1429.372 639.962, 1428.060 640.160 L 1425.800 640.500 1427.878 643.129 C 1430.440 646.371, 1434.477 647.245, 1438.714 645.475 C 1443.698 643.393, 1444.395 637.309, 1439.933 634.841 C 1439.145 634.405, 1436.813 633.386, 1434.750 632.575 C 1432.172 631.563, 1431 630.482, 1431 629.118 C 1431 626.172, 1434.705 625.389, 1437.335 627.778 C 1439.641 629.874, 1442 629.720, 1442 627.473 C 1442 625.420, 1437.943 623, 1434.500 623 C 1432.820 623, 1430.445 623.701, 1429.223 624.557 M 1458.722 627.703 C 1458.421 630.341, 1458.425 635.538, 1458.732 639.250 C 1459.204 644.957, 1459.577 646, 1461.145 646 C 1462.704 646, 1463 645.203, 1463 641 L 1463 636 1468 636 L 1473 636 1473 641 C 1473 645.684, 1473.160 646, 1475.533 646 L 1478.066 646 1477.783 634.750 C 1477.523 624.413, 1477.344 623.500, 1475.576 623.500 C 1473.974 623.500, 1473.640 624.253, 1473.576 628 L 1473.500 632.500 1468.307 632.800 L 1463.114 633.101 1462.807 628.309 C 1462.586 624.855, 1462.050 623.433, 1460.885 623.212 C 1459.638 622.975, 1459.146 623.996, 1458.722 627.703 M 1499.748 624.696 C 1499.465 625.688, 1497.626 630.888, 1495.660 636.250 L 1492.086 646 1494.427 646 C 1495.926 646, 1496.955 645.281, 1497.290 644 C 1497.725 642.335, 1498.654 642, 1502.839 642 C 1506.987 642, 1507.976 642.349, 1508.500 644 C 1509.186 646.161, 1513.031 646.809, 1512.952 644.750 C 1512.925 644.063, 1511.197 639, 1509.111 633.500 C 1505.796 624.759, 1505 623.462, 1502.790 623.196 C 1501.042 622.986, 1500.103 623.449, 1499.748 624.696 M 1528 634.500 C 1528 645.333, 1528.116 646, 1530 646 C 1531.884 646, 1532 645.333, 1532 634.500 C 1532 623.667, 1531.884 623, 1530 623 C 1528.116 623, 1528 623.667, 1528 634.500 M 1548.701 623.632 C 1548.316 624.018, 1548 629.208, 1548 635.167 L 1548 646 1550.500 646 C 1552.811 646, 1553.003 645.641, 1553.035 641.250 L 1553.070 636.500 1557.139 641.250 C 1559.993 644.581, 1561.960 646, 1563.726 646 C 1566.151 646, 1566.072 645.800, 1561.549 640.506 L 1556.855 635.012 1558.830 632.256 C 1559.916 630.740, 1561.973 628.409, 1563.402 627.076 C 1566.597 624.094, 1566.685 623, 1563.730 623 C 1562.197 623, 1560.169 624.636, 1557.480 628.040 L 1553.500 633.081 1553 628.299 C 1552.660 625.052, 1552.003 623.423, 1550.951 623.224 C 1550.099 623.063, 1549.087 623.246, 1548.701 623.632 M 1581 634.500 C 1581 645.333, 1581.116 646, 1583 646 C 1584.733 646, 1585 645.333, 1585 641 L 1585 636 1590.500 636 L 1596 636 1596 641 C 1596 645.333, 1596.267 646, 1598 646 C 1599.884 646, 1600 645.333, 1600 634.500 C 1600 623.667, 1599.884 623, 1598 623 C 1596.264 623, 1596 623.667, 1596 628.052 L 1596 633.105 1590.750 632.802 L 1585.500 632.500 1585.195 627.750 C 1584.943 623.816, 1584.556 623, 1582.945 623 C 1581.131 623, 1581 623.775, 1581 634.500 M 1501.201 632.321 C 1499.433 637.209, 1499.684 638, 1503 638 C 1504.650 638, 1506 637.605, 1506 637.122 C 1506 636.093, 1503.107 629, 1502.687 629 C 1502.530 629, 1501.861 630.494, 1501.201 632.321 M 1387.496 683.007 C 1386.862 684.033, 1387.951 684.634, 1391.465 685.198 C 1393.230 685.482, 1393.453 686.431, 1393.652 694.507 C 1393.830 701.739, 1394.180 703.563, 1395.437 703.823 C 1396.768 704.099, 1397 702.726, 1397 694.573 L 1397 685 1400 685 C 1402 685, 1403 684.500, 1403 683.500 C 1403 682.301, 1401.507 682, 1395.559 682 C 1391.466 682, 1387.838 682.453, 1387.496 683.007 M 1424 692.952 L 1424 704 1430 704 C 1434.667 704, 1436 703.667, 1436 702.500 C 1436 701.417, 1434.889 701, 1432 701 C 1428.127 701, 1428 700.893, 1428 697.639 C 1428 694.412, 1428.139 694.290, 1431.500 694.556 C 1433.984 694.753, 1435 694.423, 1435 693.417 C 1435 692.158, 1433.062 691.590, 1429.250 691.731 C 1428.491 691.760, 1428 690.470, 1428 688.446 C 1428 685.242, 1428.162 685.103, 1432.250 684.807 C 1438.707 684.340, 1437.325 682.539, 1430.250 682.202 L 1424 681.905 1424 692.952 M 1458 682.639 C 1458 682.991, 1459.339 685.454, 1460.975 688.113 L 1463.950 692.948 1460.819 697.985 C 1459.097 700.755, 1457.964 703.297, 1458.301 703.634 C 1459.538 704.872, 1461.950 703.004, 1463.819 699.362 L 1465.737 695.623 1468.381 699.811 C 1469.835 702.115, 1471.694 704, 1472.513 704 C 1474.594 704, 1474.418 703.326, 1470.905 697.852 L 1467.810 693.029 1470.963 687.906 C 1472.697 685.088, 1473.884 682.551, 1473.601 682.268 C 1472.456 681.123, 1469.991 683.110, 1468.181 686.638 L 1466.263 690.377 1463.619 686.189 C 1462.165 683.885, 1460.306 682, 1459.487 682 C 1458.669 682, 1458 682.288, 1458 682.639 M 1494.496 683.007 C 1493.860 684.036, 1494.948 684.633, 1498.500 685.205 C 1500.322 685.499, 1500.505 686.325, 1500.558 694.511 C 1500.608 702.125, 1500.875 703.545, 1502.308 703.821 C 1503.802 704.109, 1504 703.026, 1504 694.573 L 1504 685 1507 685 C 1509 685, 1510 684.500, 1510 683.500 C 1510 682.301, 1508.507 682, 1502.559 682 C 1498.466 682, 1494.838 682.453, 1494.496 683.007 M 1531 693 C 1531 701.816, 1531.281 704, 1532.415 704 C 1533.461 704, 1533.917 702.244, 1534.165 697.250 C 1534.661 687.266, 1534.051 682, 1532.399 682 C 1531.285 682, 1531 684.241, 1531 693 M 1557.216 692.750 L 1557.500 703.500 1562.750 703.802 C 1566.958 704.045, 1568 703.797, 1568 702.552 C 1568 701.445, 1566.997 701, 1564.500 701 L 1561 701 1561 691.500 C 1561 682.614, 1560.869 682, 1558.966 682 C 1557.030 682, 1556.946 682.514, 1557.216 692.750 M 1590 693.050 L 1590 704.100 1595.512 703.800 C 1601.892 703.453, 1602.936 701.645, 1597.018 701.193 C 1593.165 700.898, 1593 700.744, 1593 697.443 C 1593 694.093, 1593.108 694, 1597 694 C 1599.200 694, 1601 693.550, 1601 693 C 1601 692.450, 1599.200 692, 1597 692 C 1593.095 692, 1593 691.917, 1593 688.500 C 1593 685.019, 1593.024 685, 1597.500 685 C 1600.833 685, 1602 684.611, 1602 683.500 C 1602 682.333, 1600.667 682, 1596 682 L 1590 682 1590 693.050 M 1625.039 684.189 C 1621.263 688.241, 1622.988 692.119, 1629.500 694.219 C 1632.754 695.268, 1633.500 695.974, 1633.500 698.004 C 1633.500 700.985, 1630.043 701.962, 1628.040 699.548 C 1626.613 697.828, 1623 697.435, 1623 699 C 1623 699.550, 1623.900 700.900, 1625 702 C 1629.002 706.002, 1638 703.387, 1638 698.223 C 1638 695.832, 1635.223 692, 1633.490 692 C 1630.281 692, 1626.910 689.624, 1627.204 687.569 C 1627.569 685.015, 1631.185 684.314, 1632.960 686.452 C 1634.578 688.401, 1637 688.464, 1637 686.557 C 1637 684.508, 1633.046 682, 1629.816 682 C 1628.287 682, 1626.178 682.966, 1625.039 684.189 M 1294.500 693 C 1294.094 693.657, 1302.843 694, 1320 694 C 1337.157 694, 1345.906 693.657, 1345.500 693 C 1345.115 692.377, 1335.509 692, 1320 692 C 1304.491 692, 1294.885 692.377, 1294.500 693 M 1682.500 693 C 1682.094 693.657, 1691.009 694, 1708.500 694 C 1725.991 694, 1734.906 693.657, 1734.500 693 C 1734.114 692.376, 1724.343 692, 1708.500 692 C 1692.657 692, 1682.886 692.376, 1682.500 693" stroke="none" fill="#5a6557" fill-rule="evenodd"/>
</svg>